<?xml version="1.0" encoding="UTF-8" standalone="no"?>
<!DOCTYPE svg PUBLIC "-//W3C//DTD SVG 1.0//EN"
 "http://www.w3.org/TR/2001/REC-SVG-20010904/DTD/svg10.dtd" [
 <!ATTLIST svg xmlns:xlink CDATA #FIXED "http://www.w3.org/1999/xlink">
]>
<!-- Generated by Graphviz version 2.20.3 (Tue Oct 14 12:23:50 UTC 2008)
     For user: (m) Marcus Rohrmoser -->
<!-- Title: Hampelmann Scenegraph Pages: 1 -->
<svg width="506pt" height="285pt"
 viewBox="0.00 0.00 506.00 285.00" xmlns="http://www.w3.org/2000/svg" xmlns:xlink="http://www.w3.org/1999/xlink">
<g id="graph0" class="graph" transform="scale(1 1) rotate(0) translate(4 281)">
<title>Hampelmann Scenegraph</title>
<polygon style="fill:#95a7d4;stroke:#95a7d4;" points="-4,4 -4,-281 502,-281 502,4 -4,4"/>
<text text-anchor="middle" x="249" y="-7.9" style="font-family:Times New Roman;font-size:14.00;">Hampelmann Scenegraph</text>
<!-- universe -->
<g id="node1" class="node"><title>universe</title>
<ellipse style="fill:none;stroke:black;" cx="236" cy="-259" rx="45.1673" ry="18"/>
<text text-anchor="middle" x="236" y="-254.9" style="font-family:Times New Roman;font-size:14.00;">universe</text>
</g>
<!-- torso -->
<g id="node3" class="node"><title>torso</title>
<ellipse style="fill:none;stroke:black;" cx="236" cy="-187" rx="30.7734" ry="18"/>
<text text-anchor="middle" x="236" y="-182.9" style="font-family:Times New Roman;font-size:14.00;">torso</text>
</g>
<!-- universe&#45;&gt;torso -->
<g id="edge2" class="edge"><title>universe&#45;&gt;torso</title>
<path style="fill:none;stroke:black;" d="M236,-241C236,-233 236,-224 236,-215"/>
<polygon style="fill:black;stroke:black;" points="239.5,-215 236,-205 232.5,-215 239.5,-215"/>
</g>
<!-- left_arm -->
<g id="node5" class="node"><title>left_arm</title>
<ellipse style="fill:none;stroke:black;" cx="44" cy="-115" rx="43.9728" ry="18"/>
<text text-anchor="middle" x="44" y="-110.9" style="font-family:Times New Roman;font-size:14.00;">left_arm</text>
</g>
<!-- torso&#45;&gt;left_arm -->
<g id="edge4" class="edge"><title>torso&#45;&gt;left_arm</title>
<path style="fill:none;stroke:black;" d="M210,-177C178,-165 124,-145 87,-131"/>
<polygon style="fill:black;stroke:black;" points="87.5847,-127.464 77,-127 84.9849,-133.964 87.5847,-127.464"/>
</g>
<!-- left_leg -->
<g id="node7" class="node"><title>left_leg</title>
<ellipse style="fill:none;stroke:black;" cx="147" cy="-115" rx="41.1906" ry="18"/>
<text text-anchor="middle" x="147" y="-110.9" style="font-family:Times New Roman;font-size:14.00;">left_leg</text>
</g>
<!-- torso&#45;&gt;left_leg -->
<g id="edge6" class="edge"><title>torso&#45;&gt;left_leg</title>
<path style="fill:none;stroke:black;" d="M218,-172C205,-162 189,-148 175,-137"/>
<polygon style="fill:black;stroke:black;" points="177.1,-134.2 167,-131 172.9,-139.8 177.1,-134.2"/>
</g>
<!-- head -->
<g id="node9" class="node"><title>head</title>
<ellipse style="fill:none;stroke:black;" cx="236" cy="-115" rx="30.0736" ry="18"/>
<text text-anchor="middle" x="236" y="-110.9" style="font-family:Times New Roman;font-size:14.00;">head</text>
</g>
<!-- torso&#45;&gt;head -->
<g id="edge8" class="edge"><title>torso&#45;&gt;head</title>
<path style="fill:none;stroke:black;" d="M236,-169C236,-161 236,-152 236,-143"/>
<polygon style="fill:black;stroke:black;" points="239.5,-143 236,-133 232.5,-143 239.5,-143"/>
</g>
<!-- right_leg -->
<g id="node11" class="node"><title>right_leg</title>
<ellipse style="fill:none;stroke:black;" cx="332" cy="-115" rx="47.9469" ry="18"/>
<text text-anchor="middle" x="332" y="-110.9" style="font-family:Times New Roman;font-size:14.00;">right_leg</text>
</g>
<!-- torso&#45;&gt;right_leg -->
<g id="edge10" class="edge"><title>torso&#45;&gt;right_leg</title>
<path style="fill:none;stroke:black;" d="M255,-172C269,-162 286,-148 302,-137"/>
<polygon style="fill:black;stroke:black;" points="304.1,-139.8 310,-131 299.9,-134.2 304.1,-139.8"/>
</g>
<!-- right_arm -->
<g id="node17" class="node"><title>right_arm</title>
<ellipse style="fill:none;stroke:black;" cx="448" cy="-115" rx="50.2242" ry="18"/>
<text text-anchor="middle" x="448" y="-110.9" style="font-family:Times New Roman;font-size:14.00;">right_arm</text>
</g>
<!-- torso&#45;&gt;right_arm -->
<g id="edge16" class="edge"><title>torso&#45;&gt;right_arm</title>
<path style="fill:none;stroke:black;" d="M263,-178C298,-166 359,-145 402,-131"/>
<polygon style="fill:black;stroke:black;" points="402.62,-134.483 411,-128 400.406,-127.842 402.62,-134.483"/>
</g>
<!-- left_foot -->
<g id="node13" class="node"><title>left_foot</title>
<ellipse style="fill:none;stroke:black;" cx="147" cy="-43" rx="45.1673" ry="18"/>
<text text-anchor="middle" x="147" y="-38.9" style="font-family:Times New Roman;font-size:14.00;">left_foot</text>
</g>
<!-- left_leg&#45;&gt;left_foot -->
<g id="edge12" class="edge"><title>left_leg&#45;&gt;left_foot</title>
<path style="fill:none;stroke:black;" d="M147,-97C147,-89 147,-80 147,-71"/>
<polygon style="fill:black;stroke:black;" points="150.5,-71 147,-61 143.5,-71 150.5,-71"/>
</g>
<!-- right_foot -->
<g id="node15" class="node"><title>right_foot</title>
<ellipse style="fill:none;stroke:black;" cx="332" cy="-43" rx="50.9221" ry="18"/>
<text text-anchor="middle" x="332" y="-38.9" style="font-family:Times New Roman;font-size:14.00;">right_foot</text>
</g>
<!-- right_leg&#45;&gt;right_foot -->
<g id="edge14" class="edge"><title>right_leg&#45;&gt;right_foot</title>
<path style="fill:none;stroke:black;" d="M332,-97C332,-89 332,-80 332,-71"/>
<polygon style="fill:black;stroke:black;" points="335.5,-71 332,-61 328.5,-71 335.5,-71"/>
</g>
</g>
</svg>
