<?xml version="1.0" encoding="UTF-8" standalone="no"?>
<!DOCTYPE svg PUBLIC "-//W3C//DTD SVG 1.0//EN"
 "http://www.w3.org/TR/2001/REC-SVG-20010904/DTD/svg10.dtd" [
 <!ATTLIST svg xmlns:xlink CDATA #FIXED "http://www.w3.org/1999/xlink">
]>
<!-- Generated by Graphviz version 2.20.3 (Tue Oct 14 12:23:50 UTC 2008)
     For user: (m) Marcus Rohrmoser -->
<!-- Title: Piccolo2d Ueberblick Pages: 1 -->
<svg width="1052pt" height="803pt"
 viewBox="0.00 0.00 1052.00 803.00" xmlns="http://www.w3.org/2000/svg" xmlns:xlink="http://www.w3.org/1999/xlink">
<g id="graph0" class="graph" transform="scale(1 1) rotate(0) translate(4 799)">
<title>Piccolo2d Ueberblick</title>
<polygon style="fill:none;stroke:none;" points="-4,4 -4,-799 1048,-799 1048,4 -4,4"/>
<text text-anchor="middle" x="522" y="-7.9" style="font-family:Times New Roman;font-size:14.00;">Piccolo2D Stammbaum</text>
<!-- pi2 -->
<g id="node1" class="node"><title>pi2</title>
<a xlink:href="http://piccolo2d.org/" xlink:title="piccolo2d">
<ellipse style="fill:#b2dfee;stroke:black;" cx="59" cy="-588" rx="50.9221" ry="18"/>
<text text-anchor="middle" x="59" y="-583.9" style="font-family:Times New Roman;font-size:14.00;">piccolo2d</text>
</a>
</g>
<!-- p2d -->
<g id="node2" class="node"><title>p2d</title>
<a xlink:href="http://www.cs.umd.edu/hcil/jazz/" xlink:title="piccolo">
<ellipse style="fill:none;stroke:black;" cx="210" cy="-588" rx="40.9981" ry="18"/>
<text text-anchor="middle" x="210" y="-583.9" style="font-family:Times New Roman;font-size:14.00;">piccolo</text>
</a>
</g>
<!-- pi2&#45;&gt;p2d -->
<g id="edge2" class="edge"><title>pi2&#45;&gt;p2d</title>
<path style="fill:none;stroke:black;" d="M111,-588C126,-588 143,-588 159,-588"/>
<polygon style="fill:black;stroke:black;" points="159,-591.5 169,-588 159,-584.5 159,-591.5"/>
</g>
<!-- gdi -->
<g id="node9" class="node"><title>gdi</title>
<a xlink:href="http://de.wikipedia.org/wiki/GDI%2B" xlink:title="GDI+">
<ellipse style="fill:none;stroke:black;" cx="393" cy="-723" rx="34.0492" ry="18"/>
<text text-anchor="middle" x="393" y="-718.9" style="font-family:Times New Roman;font-size:14.00;">GDI+</text>
</a>
</g>
<!-- p2d&#45;&gt;gdi -->
<g id="edge56" class="edge"><title>p2d&#45;&gt;gdi</title>
<path style="fill:none;stroke:black;" d="M231,-603C264,-628 328,-675 365,-702"/>
<polygon style="fill:black;stroke:black;" points="362.9,-704.8 373,-708 367.1,-699.2 362.9,-704.8"/>
</g>
<!-- jazz -->
<g id="node16" class="node"><title>jazz</title>
<a xlink:href="http://piccolo2d.org/learn/about.html" xlink:title="jazz">
<ellipse style="fill:none;stroke:black;" cx="393" cy="-588" rx="27.1004" ry="18"/>
<text text-anchor="middle" x="393" y="-583.9" style="font-family:Times New Roman;font-size:14.00;">jazz</text>
</a>
</g>
<!-- p2d&#45;&gt;jazz -->
<g id="edge58" class="edge"><title>p2d&#45;&gt;jazz</title>
<path style="fill:none;stroke:black;" d="M251,-588C282,-588 326,-588 356,-588"/>
<polygon style="fill:black;stroke:black;" points="356,-591.5 366,-588 356,-584.5 356,-591.5"/>
</g>
<!-- ms -->
<g id="node18" class="node"><title>ms</title>
<a xlink:href="http://research.microsoft.com/" xlink:title="Microsoft Research">
<ellipse style="fill:none;stroke:black;" cx="393" cy="-442" rx="89.8356" ry="18"/>
<text text-anchor="middle" x="393" y="-437.9" style="font-family:Times New Roman;font-size:14.00;">Microsoft Research</text>
</a>
</g>
<!-- p2d&#45;&gt;ms -->
<g id="edge60" class="edge"><title>p2d&#45;&gt;ms</title>
<path style="fill:none;stroke:black;" d="M230,-572C262,-546 325,-496 363,-466"/>
<polygon style="fill:black;stroke:black;" points="365.1,-468.8 371,-460 360.9,-463.2 365.1,-468.8"/>
</g>
<!-- .net -->
<g id="node3" class="node"><title>.net</title>
<a xlink:href="http://de.wikipedia.org/wiki/.NET" xlink:title=".NET">
<ellipse style="fill:none;stroke:black;" cx="603" cy="-777" rx="31.9646" ry="18"/>
<text text-anchor="middle" x="603" y="-772.9" style="font-family:Times New Roman;font-size:14.00;">.NET</text>
</a>
</g>
<!-- c++ -->
<g id="node4" class="node"><title>c++</title>
<a xlink:href="http://de.wikipedia.org/wiki/C%2B%2B" xlink:title="C++">
<ellipse style="fill:none;stroke:black;" cx="829" cy="-307" rx="29.1851" ry="18"/>
<text text-anchor="middle" x="829" y="-302.9" style="font-family:Times New Roman;font-size:14.00;">C++</text>
</a>
</g>
<!-- local tools -->
<g id="node5" class="node"><title>local tools</title>
<a xlink:href="http://doi.acm.org/10.1145/237091.237116" xlink:title="local tools">
<ellipse style="fill:none;stroke:black;" cx="603" cy="-53" rx="52.1162" ry="18"/>
<text text-anchor="middle" x="603" y="-48.9" style="font-family:Times New Roman;font-size:14.00;">local tools</text>
</a>
</g>
<!-- pad++ -->
<g id="node6" class="node"><title>pad++</title>
<a xlink:href="http://www.cs.umd.edu/hcil/pad++/" xlink:title="PAD++">
<ellipse style="fill:none;stroke:black;" cx="603" cy="-215" rx="40.9981" ry="18"/>
<text text-anchor="middle" x="603" y="-210.9" style="font-family:Times New Roman;font-size:14.00;">PAD++</text>
</a>
</g>
<!-- pad++&#45;&gt;c++ -->
<g id="edge4" class="edge"><title>pad++&#45;&gt;c++</title>
<path style="fill:none;stroke:black;" d="M634,-227C650,-233 669,-240 686,-247 724,-261 766,-280 796,-292"/>
<polygon style="fill:black;stroke:black;" points="794.44,-295.137 805,-296 797.283,-288.74 794.44,-295.137"/>
</g>
<!-- umd -->
<g id="node28" class="node"><title>umd</title>
<a xlink:href="http://www.cs.umd.edu/hcil/" xlink:title="University of Maryland">
<ellipse style="fill:none;stroke:black;" cx="829" cy="-215" rx="105.818" ry="18"/>
<text text-anchor="middle" x="829" y="-210.9" style="font-family:Times New Roman;font-size:14.00;">University of Maryland</text>
</a>
</g>
<!-- pad++&#45;&gt;umd -->
<g id="edge6" class="edge"><title>pad++&#45;&gt;umd</title>
<path style="fill:none;stroke:black;" d="M644,-215C663,-215 688,-215 712,-215"/>
<polygon style="fill:black;stroke:black;" points="712,-218.5 722,-215 712,-211.5 712,-218.5"/>
</g>
<!-- zui -->
<g id="node29" class="node"><title>zui</title>
<a xlink:href="http://de.wikipedia.org/wiki/ZUI" xlink:title="ZUI">
<ellipse style="fill:none;stroke:black;" cx="829" cy="-134" rx="27.1004" ry="18"/>
<text text-anchor="middle" x="829" y="-129.9" style="font-family:Times New Roman;font-size:14.00;">ZUI</text>
</a>
</g>
<!-- pad++&#45;&gt;zui -->
<g id="edge8" class="edge"><title>pad++&#45;&gt;zui</title>
<path style="fill:none;stroke:black;" d="M637,-205C652,-200 670,-194 686,-188 725,-175 767,-159 797,-147"/>
<polygon style="fill:black;stroke:black;" points="798.283,-150.26 806,-143 795.44,-143.863 798.283,-150.26"/>
</g>
<!-- chevron -->
<g id="node7" class="node"><title>chevron</title>
<a xlink:href="http://www.chevron.com/" xlink:title="Chevron">
<ellipse style="fill:none;stroke:black;" cx="603" cy="-723" rx="46.0565" ry="18"/>
<text text-anchor="middle" x="603" y="-718.9" style="font-family:Times New Roman;font-size:14.00;">Chevron</text>
</a>
</g>
<!-- darpa -->
<g id="node8" class="node"><title>darpa</title>
<a xlink:href="http://www.nsf.gov/" xlink:title="DARPA">
<ellipse style="fill:none;stroke:black;" cx="603" cy="-669" rx="43.0827" ry="18"/>
<text text-anchor="middle" x="603" y="-664.9" style="font-family:Times New Roman;font-size:14.00;">DARPA</text>
</a>
</g>
<!-- gdi&#45;&gt;.net -->
<g id="edge10" class="edge"><title>gdi&#45;&gt;.net</title>
<path style="fill:none;stroke:black;" d="M424,-731C461,-740 523,-756 564,-767"/>
<polygon style="fill:black;stroke:black;" points="563.416,-770.479 574,-770 565.427,-763.774 563.416,-770.479"/>
</g>
<!-- ge -->
<g id="node10" class="node"><title>ge</title>
<a xlink:href="http://de.wikipedia.org/wiki/Google_Earth" xlink:title="Google Earth">
<ellipse style="fill:none;stroke:black;" cx="603" cy="-107" rx="64.8203" ry="18"/>
<text text-anchor="middle" x="603" y="-102.9" style="font-family:Times New Roman;font-size:14.00;">Google Earth</text>
</a>
</g>
<!-- ge&#45;&gt;zui -->
<g id="edge12" class="edge"><title>ge&#45;&gt;zui</title>
<path style="fill:none;stroke:black;" d="M663,-114C704,-119 757,-126 792,-130"/>
<polygon style="fill:black;stroke:black;" points="791.701,-133.488 802,-131 792.398,-126.522 791.701,-133.488"/>
</g>
<!-- grap -->
<g id="node11" class="node"><title>grap</title>
<a xlink:href="http://de.wikipedia.org/wiki/Graph_(Graphentheorie)" xlink:title="Graph">
<ellipse style="fill:none;stroke:black;" cx="1008" cy="-389" rx="36.1339" ry="18"/>
<text text-anchor="middle" x="1008" y="-384.9" style="font-family:Times New Roman;font-size:14.00;">Graph</text>
</a>
</g>
<!-- java -->
<g id="node12" class="node"><title>java</title>
<a xlink:href="http://de.wikipedia.org/wiki/Java_(Technik)" xlink:title="Java">
<ellipse style="fill:none;stroke:black;" cx="829" cy="-525" rx="27.9903" ry="18"/>
<text text-anchor="middle" x="829" y="-520.9" style="font-family:Times New Roman;font-size:14.00;">Java</text>
</a>
</g>
<!-- java2d -->
<g id="node13" class="node"><title>java2d</title>
<a xlink:href="http://en.wikipedia.org/wiki/Java_2D" xlink:title="Java2D">
<ellipse style="fill:none;stroke:black;" cx="603" cy="-561" rx="39.8056" ry="18"/>
<text text-anchor="middle" x="603" y="-556.9" style="font-family:Times New Roman;font-size:14.00;">Java2D</text>
</a>
</g>
<!-- java2d&#45;&gt;java -->
<g id="edge14" class="edge"><title>java2d&#45;&gt;java</title>
<path style="fill:none;stroke:black;" d="M641,-555C683,-549 750,-538 791,-532"/>
<polygon style="fill:black;stroke:black;" points="791.881,-535.393 801,-530 790.508,-528.529 791.881,-535.393"/>
</g>
<!-- opengl -->
<g id="node21" class="node"><title>opengl</title>
<a xlink:href="http://de.wikipedia.org/wiki/Opengl" xlink:title="OpenGL">
<ellipse style="fill:none;stroke:black;" cx="829" cy="-462" rx="45.8622" ry="18"/>
<text text-anchor="middle" x="829" y="-457.9" style="font-family:Times New Roman;font-size:14.00;">OpenGL</text>
</a>
</g>
<!-- java2d&#45;&gt;opengl -->
<g id="edge16" class="edge"><title>java2d&#45;&gt;opengl</title>
<path style="fill:none;stroke:black;" d="M639,-553C655,-549 672,-543 686,-534 706,-522 703,-509 722,-498 739,-487 760,-479 779,-474"/>
<polygon style="fill:black;stroke:black;" points="780.427,-477.226 789,-471 778.416,-470.521 780.427,-477.226"/>
</g>
<!-- java3d -->
<g id="node14" class="node"><title>java3d</title>
<a xlink:href="http://de.wikipedia.org/wiki/Java_3D" xlink:title="Java3D">
<ellipse style="fill:none;stroke:black;" cx="603" cy="-507" rx="39.8056" ry="18"/>
<text text-anchor="middle" x="603" y="-502.9" style="font-family:Times New Roman;font-size:14.00;">Java3D</text>
</a>
</g>
<!-- java3d&#45;&gt;java -->
<g id="edge18" class="edge"><title>java3d&#45;&gt;java</title>
<path style="fill:none;stroke:black;" d="M643,-510C684,-513 749,-518 791,-522"/>
<polygon style="fill:black;stroke:black;" points="790.701,-525.488 801,-523 791.398,-518.522 790.701,-525.488"/>
</g>
<!-- java3d&#45;&gt;opengl -->
<g id="edge20" class="edge"><title>java3d&#45;&gt;opengl</title>
<path style="fill:none;stroke:black;" d="M640,-500C678,-493 736,-481 778,-472"/>
<polygon style="fill:black;stroke:black;" points="778.881,-475.393 788,-470 777.508,-468.529 778.881,-475.393"/>
</g>
<!-- sg -->
<g id="node26" class="node"><title>sg</title>
<a xlink:href="http://de.wikipedia.org/wiki/Szenengraph" xlink:title="Szenengraph">
<ellipse style="fill:none;stroke:black;" cx="829" cy="-389" rx="63.9292" ry="18"/>
<text text-anchor="middle" x="829" y="-384.9" style="font-family:Times New Roman;font-size:14.00;">Szenengraph</text>
</a>
</g>
<!-- java3d&#45;&gt;sg -->
<g id="edge22" class="edge"><title>java3d&#45;&gt;sg</title>
<path style="fill:none;stroke:black;" d="M641,-500C656,-496 673,-489 686,-480 708,-465 702,-450 722,-435 738,-423 758,-414 775,-406"/>
<polygon style="fill:black;stroke:black;" points="777.015,-408.964 785,-402 774.415,-402.464 777.015,-408.964"/>
</g>
<!-- javafx -->
<g id="node15" class="node"><title>javafx</title>
<a xlink:href="http://de.wikipedia.org/wiki/JavaFX" xlink:title="JavaFX">
<ellipse style="fill:none;stroke:black;" cx="210" cy="-342" rx="39.8056" ry="18"/>
<text text-anchor="middle" x="210" y="-337.9" style="font-family:Times New Roman;font-size:14.00;">JavaFX</text>
</a>
</g>
<!-- scenegraph -->
<g id="node24" class="node"><title>scenegraph</title>
<a xlink:href="https://scenegraph.dev.java.net/" xlink:title="scenegraph">
<ellipse style="fill:none;stroke:black;" cx="393" cy="-342" rx="56.9803" ry="18"/>
<text text-anchor="middle" x="393" y="-337.9" style="font-family:Times New Roman;font-size:14.00;">scenegraph</text>
</a>
</g>
<!-- javafx&#45;&gt;scenegraph -->
<g id="edge24" class="edge"><title>javafx&#45;&gt;scenegraph</title>
<path style="fill:none;stroke:black;" d="M251,-342C273,-342 300,-342 326,-342"/>
<polygon style="fill:black;stroke:black;" points="326,-345.5 336,-342 326,-338.5 326,-345.5"/>
</g>
<!-- jazz&#45;&gt;pad++ -->
<g id="edge26" class="edge"><title>jazz&#45;&gt;pad++</title>
<path style="fill:none;stroke:black;" d="M408,-573C429,-551 465,-510 484,-469 519,-390 476,-353 520,-280 532,-261 551,-245 568,-234"/>
<polygon style="fill:black;stroke:black;" points="569.958,-236.916 577,-229 566.559,-230.797 569.958,-236.916"/>
</g>
<!-- jazz&#45;&gt;chevron -->
<g id="edge28" class="edge"><title>jazz&#45;&gt;chevron</title>
<path style="fill:none;stroke:black;" d="M408,-604C430,-627 475,-670 520,-696 531,-701 542,-706 554,-710"/>
<polygon style="fill:black;stroke:black;" points="553.416,-713.479 564,-713 555.427,-706.774 553.416,-713.479"/>
</g>
<!-- jazz&#45;&gt;darpa -->
<g id="edge30" class="edge"><title>jazz&#45;&gt;darpa</title>
<path style="fill:none;stroke:black;" d="M416,-598C441,-609 483,-628 520,-642 533,-647 546,-651 558,-655"/>
<polygon style="fill:black;stroke:black;" points="557.416,-658.479 568,-658 559.427,-651.774 557.416,-658.479"/>
</g>
<!-- jazz&#45;&gt;java2d -->
<g id="edge32" class="edge"><title>jazz&#45;&gt;java2d</title>
<path style="fill:none;stroke:black;" d="M420,-585C453,-580 512,-572 554,-567"/>
<polygon style="fill:black;stroke:black;" points="554.398,-570.478 564,-566 553.701,-563.512 554.398,-570.478"/>
</g>
<!-- nsf -->
<g id="node19" class="node"><title>nsf</title>
<a xlink:href="http://www.nsf.gov/" xlink:title="NSF">
<ellipse style="fill:none;stroke:black;" cx="603" cy="-615" rx="27.9903" ry="18"/>
<text text-anchor="middle" x="603" y="-610.9" style="font-family:Times New Roman;font-size:14.00;">NSF</text>
</a>
</g>
<!-- jazz&#45;&gt;nsf -->
<g id="edge34" class="edge"><title>jazz&#45;&gt;nsf</title>
<path style="fill:none;stroke:black;" d="M420,-591C456,-597 523,-605 565,-610"/>
<polygon style="fill:black;stroke:black;" points="564.701,-613.488 575,-611 565.398,-606.522 564.701,-613.488"/>
</g>
<!-- jazz&#45;&gt;sg -->
<g id="edge36" class="edge"><title>jazz&#45;&gt;sg</title>
<path style="fill:none;stroke:black;" d="M406,-572C437,-531 517,-428 520,-426 559,-404 676,-395 755,-391"/>
<polygon style="fill:black;stroke:black;" points="755,-394.5 765,-391 755,-387.5 755,-394.5"/>
</g>
<!-- kidpad -->
<g id="node17" class="node"><title>kidpad</title>
<a xlink:href="http://www.cs.umd.edu/hcil/kiddesign/kidpad.shtml" xlink:title="KidPad">
<ellipse style="fill:none;stroke:black;" cx="393" cy="-134" rx="39.8056" ry="18"/>
<text text-anchor="middle" x="393" y="-129.9" style="font-family:Times New Roman;font-size:14.00;">KidPad</text>
</a>
</g>
<!-- kidpad&#45;&gt;local tools -->
<g id="edge40" class="edge"><title>kidpad&#45;&gt;local tools</title>
<path style="fill:none;stroke:black;" d="M422,-121C447,-110 486,-93 520,-80 531,-76 543,-72 554,-68"/>
<polygon style="fill:black;stroke:black;" points="555.427,-71.2259 564,-65 553.416,-64.5212 555.427,-71.2259"/>
</g>
<!-- kidpad&#45;&gt;pad++ -->
<g id="edge42" class="edge"><title>kidpad&#45;&gt;pad++</title>
<path style="fill:none;stroke:black;" d="M421,-147C447,-159 486,-175 520,-188 533,-193 546,-197 559,-202"/>
<polygon style="fill:black;stroke:black;" points="558.416,-205.479 569,-205 560.427,-198.774 558.416,-205.479"/>
</g>
<!-- ogre -->
<g id="node20" class="node"><title>ogre</title>
<a xlink:href="http://de.wikipedia.org/wiki/OGRE" xlink:title="OGRE">
<ellipse style="fill:none;stroke:black;" cx="603" cy="-361" rx="37.0233" ry="18"/>
<text text-anchor="middle" x="603" y="-356.9" style="font-family:Times New Roman;font-size:14.00;">OGRE</text>
</a>
</g>
<!-- ogre&#45;&gt;c++ -->
<g id="edge44" class="edge"><title>ogre&#45;&gt;c++</title>
<path style="fill:none;stroke:black;" d="M637,-353C679,-343 749,-326 792,-316"/>
<polygon style="fill:black;stroke:black;" points="792.881,-319.393 802,-314 791.508,-312.529 792.881,-319.393"/>
</g>
<!-- ogre&#45;&gt;opengl -->
<g id="edge46" class="edge"><title>ogre&#45;&gt;opengl</title>
<path style="fill:none;stroke:black;" d="M630,-374C654,-385 690,-402 722,-416 744,-425 769,-436 789,-445"/>
<polygon style="fill:black;stroke:black;" points="787.44,-448.137 798,-449 790.283,-441.74 787.44,-448.137"/>
</g>
<!-- ogre&#45;&gt;sg -->
<g id="edge48" class="edge"><title>ogre&#45;&gt;sg</title>
<path style="fill:none;stroke:black;" d="M639,-365C671,-369 721,-375 761,-381"/>
<polygon style="fill:black;stroke:black;" points="760.701,-384.488 771,-382 761.398,-377.522 760.701,-384.488"/>
</g>
<!-- osg -->
<g id="node22" class="node"><title>osg</title>
<a xlink:href="http://en.wikipedia.org/wiki/OpenSceneGraph" xlink:title="OpenSceneGraph">
<ellipse style="fill:none;stroke:black;" cx="603" cy="-307" rx="82.1898" ry="18"/>
<text text-anchor="middle" x="603" y="-302.9" style="font-family:Times New Roman;font-size:14.00;">OpenSceneGraph</text>
</a>
</g>
<!-- osg&#45;&gt;c++ -->
<g id="edge50" class="edge"><title>osg&#45;&gt;c++</title>
<path style="fill:none;stroke:black;" d="M686,-307C722,-307 761,-307 790,-307"/>
<polygon style="fill:black;stroke:black;" points="790,-310.5 800,-307 790,-303.5 790,-310.5"/>
</g>
<!-- osg&#45;&gt;opengl -->
<g id="edge52" class="edge"><title>osg&#45;&gt;opengl</title>
<path style="fill:none;stroke:black;" d="M663,-319C672,-323 680,-328 686,-334 716,-360 694,-387 722,-416 738,-432 760,-443 780,-450"/>
<polygon style="fill:black;stroke:black;" points="779.416,-453.479 790,-453 781.427,-446.774 779.416,-453.479"/>
</g>
<!-- osg&#45;&gt;sg -->
<g id="edge54" class="edge"><title>osg&#45;&gt;sg</title>
<path style="fill:none;stroke:black;" d="M650,-322C662,-326 675,-330 686,-334 719,-346 755,-360 783,-370"/>
<polygon style="fill:black;stroke:black;" points="782.415,-373.536 793,-374 785.015,-367.036 782.415,-373.536"/>
</g>
<!-- posy -->
<g id="node23" class="node"><title>posy</title>
<a xlink:href="http://www.ted.com/index.php/talks/blaise_aguera_y_arcas_demos_photosynth.html" xlink:title="PhotoSynth">
<ellipse style="fill:none;stroke:black;" cx="59" cy="-138" rx="57.8712" ry="18"/>
<text text-anchor="middle" x="59" y="-133.9" style="font-family:Times New Roman;font-size:14.00;">PhotoSynth</text>
</a>
</g>
<!-- seadragon -->
<g id="node25" class="node"><title>seadragon</title>
<a xlink:href="http://en.wikipedia.org/wiki/DeepZoom" xlink:title="SeaDragon">
<ellipse style="fill:none;stroke:black;" cx="210" cy="-138" rx="55.0898" ry="18"/>
<text text-anchor="middle" x="210" y="-133.9" style="font-family:Times New Roman;font-size:14.00;">SeaDragon</text>
</a>
</g>
<!-- posy&#45;&gt;seadragon -->
<g id="edge62" class="edge"><title>posy&#45;&gt;seadragon</title>
<path style="fill:none;stroke:black;" d="M118,-138C127,-138 135,-138 144,-138"/>
<polygon style="fill:black;stroke:black;" points="144,-141.5 154,-138 144,-134.5 144,-141.5"/>
</g>
<!-- scenegraph&#45;&gt;java2d -->
<g id="edge64" class="edge"><title>scenegraph&#45;&gt;java2d</title>
<path style="fill:none;stroke:black;" d="M421,-358C441,-371 468,-391 484,-415 515,-460 482,-494 520,-534 529,-543 542,-549 554,-553"/>
<polygon style="fill:black;stroke:black;" points="553.416,-556.479 564,-556 555.427,-549.774 553.416,-556.479"/>
</g>
<!-- scenegraph&#45;&gt;sg -->
<g id="edge66" class="edge"><title>scenegraph&#45;&gt;sg</title>
<path style="fill:none;stroke:black;" d="M419,-326C472,-294 596,-232 686,-280 712,-293 701,-314 722,-334 739,-349 762,-361 781,-371"/>
<polygon style="fill:black;stroke:black;" points="779.44,-374.137 790,-375 782.283,-367.74 779.44,-374.137"/>
</g>
<!-- seadragon&#45;&gt;ms -->
<g id="edge68" class="edge"><title>seadragon&#45;&gt;ms</title>
<path style="fill:none;stroke:black;" d="M214,-156C223,-197 251,-299 302,-369 317,-389 338,-406 357,-419"/>
<polygon style="fill:black;stroke:black;" points="354.9,-421.8 365,-425 359.1,-416.2 354.9,-421.8"/>
</g>
<!-- seadragon&#45;&gt;zui -->
<g id="edge70" class="edge"><title>seadragon&#45;&gt;zui</title>
<path style="fill:none;stroke:black;" d="M236,-122C308,-79 518,30 686,-26 736,-43 782,-84 808,-110"/>
<polygon style="fill:black;stroke:black;" points="805.781,-112.779 815,-118 811.049,-108.169 805.781,-112.779"/>
</g>
<!-- sg&#45;&gt;grap -->
<g id="edge72" class="edge"><title>sg&#45;&gt;grap</title>
<path style="fill:none;stroke:black;" d="M893,-389C915,-389 941,-389 962,-389"/>
<polygon style="fill:black;stroke:black;" points="962,-392.5 972,-389 962,-385.5 962,-392.5"/>
</g>
<!-- svg -->
<g id="node27" class="node"><title>svg</title>
<a xlink:href="http://de.wikipedia.org/wiki/Scalable_Vector_Graphics" xlink:title="SVG">
<ellipse style="fill:none;stroke:black;" cx="603" cy="-453" rx="30.7734" ry="18"/>
<text text-anchor="middle" x="603" y="-448.9" style="font-family:Times New Roman;font-size:14.00;">SVG</text>
</a>
</g>
<!-- svg&#45;&gt;sg -->
<g id="edge74" class="edge"><title>svg&#45;&gt;sg</title>
<path style="fill:none;stroke:black;" d="M632,-445C667,-435 729,-418 774,-405"/>
<polygon style="fill:black;stroke:black;" points="775.427,-408.226 784,-402 773.416,-401.521 775.427,-408.226"/>
</g>
<!-- safa -->
<g id="node30" class="node"><title>safa</title>
<a xlink:href="http://www.apple.com/iphone/features/safari.html" xlink:title="Mobile Safari">
<ellipse style="fill:none;stroke:black;" cx="603" cy="-161" rx="64.8203" ry="18"/>
<text text-anchor="middle" x="603" y="-156.9" style="font-family:Times New Roman;font-size:14.00;">Mobile Safari</text>
</a>
</g>
<!-- safa&#45;&gt;zui -->
<g id="edge38" class="edge"><title>safa&#45;&gt;zui</title>
<path style="fill:none;stroke:black;" d="M663,-154C704,-149 757,-142 792,-138"/>
<polygon style="fill:black;stroke:black;" points="792.398,-141.478 802,-137 791.701,-134.512 792.398,-141.478"/>
</g>
</g>
</svg>
